<svg id="圖層_1" data-name="圖層 1" xmlns="http://www.w3.org/2000/svg" viewBox="0 0 85.04 85.04"><defs><style>.cls-1{fill:#4c4948;}</style></defs><title>icon_Green</title><path class="cls-1" d="M72.14,33.61a9.64,9.64,0,0,0-2.21-4.87c-1.56-1.76-3.58-2.69-5.49-3.89a12.63,12.63,0,0,1-5.11-5.31,14.4,14.4,0,0,1-1.48-6.45A15.36,15.36,0,0,1,58,10.72c0-.28.09-.5.13-.65s0-.13,0-.17l0-.05a.58.58,0,0,0-.8-.68c-.08,0-6,2.76-9.33,11.77a29.61,29.61,0,0,0-.89,2.88c0,.09,0,.17-.06.25-.09.34-.17.68-.23,1q-.16.78-.27,1.53a24.24,24.24,0,0,0-.23,3.25,22.28,22.28,0,0,0,.19,2.86c.1.78.24,1.55.41,2.29a20.59,20.59,0,0,0,2.61,6.28,16.1,16.1,0,0,0,2.9,3.48c.27.25.54.47.81.68a9.83,9.83,0,0,0,2.29,1.3c.24.1.48.18.71.25l.28.07a11.92,11.92,0,0,0,2.9.35h.14c0-.12,0-.23,0-.35s0-.15,0-.23,0-.38,0-.58,0-.24,0-.36c0-.36,0-.74,0-1.13s-.06-.83-.11-1.25a49.54,49.54,0,0,0-2-8.51c-.26-.81-.52-1.58-.77-2.29-.37-1.06-.71-2-1-2.73,0,0,0,0,0-.06-.42-1.08-.7-1.72-.7-1.72a.16.16,0,0,1,.06-.19.15.15,0,0,1,.19,0,25.6,25.6,0,0,1,3.35,4.68c.38.66.77,1.38,1.15,2.17l0,.12a32,32,0,0,1,2.59,8c.1.58.2,1.17.27,1.78,0,.14,0,.27.05.41s0,.39,0,.59h0v0c0,.19,0,.38,0,.57s0,.29,0,.44a1,1,0,0,0,0,.17s0,.06,0,.09c0,.36-.05.72-.09,1.07,0,.14,0,.29,0,.43s0,.11,0,.16a.77.77,0,0,0,0,.15c-.05.34-.11.67-.17,1h0c-.06.27-.11.55-.18.82a20.79,20.79,0,0,1-1.11,3.4h0a20.62,20.62,0,0,1-1.27,2.53H54.07a36.18,36.18,0,0,0,1.37-7,10.88,10.88,0,0,1-2.22-.94,33.22,33.22,0,0,1-1.57,8h-9V47.07H51a17.41,17.41,0,0,1-2.23-2.3H42.61V35h1.58a21.43,21.43,0,0,1-.37-2.29H42.61V24.54a6.8,6.8,0,0,1,1.5.45l.09-.43c.09-.47.2-.95.33-1.43l.1-.4c.23-.82.47-1.61.73-2.35a25,25,0,0,0-3.9-.3,25.7,25.7,0,1,0,23.68,35.7h0l.27-.66.06-.16c.07-.18.13-.36.19-.54l.06-.16c.08-.22.16-.45.23-.67,0,0,0-.06,0-.09q.11-.3.18-.6l.06-.18.15-.59,0-.11c.06-.23.11-.47.17-.7l0-.16c0-.19.08-.38.11-.56a1.42,1.42,0,0,0,0-.2l.12-.71c.07-.48.13-1,.18-1.46.08-.81.12-1.62.12-2.45v-.05c0-.26,0-.51,0-.77v0a13.91,13.91,0,0,0,1.2-.95,11.45,11.45,0,0,0,4-8.48A11.18,11.18,0,0,0,72.14,33.61ZM50.77,58.92a22.36,22.36,0,0,1-1.1,2.19,14.41,14.41,0,0,1-3.82,4.47A7.91,7.91,0,0,1,42.61,67v-8.1ZM40.31,67a7.91,7.91,0,0,1-3.24-1.44,16.26,16.26,0,0,1-4.92-6.66h8.16Zm0-10.39h-9a33.92,33.92,0,0,1-1.64-9.56H40.31Zm0-11.86H29.61A34.17,34.17,0,0,1,31.24,35h9.07Zm-8.2-12.05a20.89,20.89,0,0,1,1.14-2.27A14.29,14.29,0,0,1,37.07,26a7.78,7.78,0,0,1,3.24-1.44v8.18Zm-5.78-2.07a21.35,21.35,0,0,1,7.53-4.87,21.37,21.37,0,0,0-4.23,6.94H24.52A22.35,22.35,0,0,1,26.33,30.65ZM23,35h5.86a36.94,36.94,0,0,0-1.52,9.76H20.09A21.29,21.29,0,0,1,23,35Zm4.35,12.06a36.71,36.71,0,0,0,1.54,9.56H23a21.16,21.16,0,0,1-2.91-9.56Zm-1,13.83a22.1,22.1,0,0,1-1.75-2h5.08a25.8,25.8,0,0,0,1.6,3.34,19.07,19.07,0,0,0,2.59,3.52A21.56,21.56,0,0,1,26.33,60.9Zm30.26,0a21.37,21.37,0,0,1-7.53,4.88,21.48,21.48,0,0,0,4.2-6.86h5.08A22.1,22.1,0,0,1,56.59,60.9Z"/></svg>