<svg id="圖層_1" data-name="圖層 1" xmlns="http://www.w3.org/2000/svg" viewBox="0 0 85.04 85.04"><defs><style>.cls-1{fill:#4c4948;}</style></defs><title>icon_Hardware Calibration</title><path class="cls-1" d="M65.21,19.29H43.66v-1H40.15v1H18.76a5.39,5.39,0,0,0-5.38,5.38v28.4a5.39,5.39,0,0,0,5.38,5.38h17.6c-.23,2.34-1.14,8.08-4.57,8.18-2,.28-1.8,2.31,0,2.31L42,69l10.19,0c1.8,0,2-2,0-2.31-3.45-.11-4.33-5.91-4.55-8.23H65.21a5.39,5.39,0,0,0,5.37-5.38V24.67A5.39,5.39,0,0,0,65.21,19.29Zm1.64,32.05a2.71,2.71,0,0,1-2.7,2.7H19.82a2.71,2.71,0,0,1-2.7-2.7V26.41a2.71,2.71,0,0,1,2.7-2.71H40.15v.8a14.07,14.07,0,1,0,3.51,0v-.8H64.15a2.72,2.72,0,0,1,2.7,2.71ZM47.4,38.45a5.5,5.5,0,1,1-7.25-5.21v1.13h-.32a2,2,0,0,0-2,2v4.15a2,2,0,0,0,2,2H44a2,2,0,0,0,2-2V36.37a2,2,0,0,0-2-2h-.32V33.24A5.5,5.5,0,0,1,47.4,38.45ZM43.66,32.2V30.35a8.29,8.29,0,1,1-3.51,0V32.2a6.5,6.5,0,1,0,3.51,0Zm.59,6.25a2.34,2.34,0,1,1-2.34-2.34A2.33,2.33,0,0,1,44.25,38.45Zm-4.1-9.12a9.29,9.29,0,1,0,3.51,0V26.52a12.07,12.07,0,1,1-3.51,0Z"/></svg>