<svg id="圖層_1" data-name="圖層 1" xmlns="http://www.w3.org/2000/svg" viewBox="0 0 85.04 85.04"><defs><style>.cls-1{fill:#4e4b4c;}</style></defs><title>icon_rgb</title><path class="cls-1" d="M23.81,30.31a18.56,18.56,0,1,1,36.58,4.31A16.42,16.42,0,0,1,64,36.41a22.52,22.52,0,1,0-44.2-6.1,22.75,22.75,0,0,0,.86,6.1,16.42,16.42,0,0,1,3.64-1.79,18.56,18.56,0,0,1-.52-4.31Zm0,0"/><path class="cls-1" d="M66.85,31.18a23.57,23.57,0,0,1-.57,4.48A18.53,18.53,0,1,1,40.77,62.32a16.4,16.4,0,0,1-3.24,2.3A22.51,22.51,0,1,0,66.85,31.18Zm0,0"/><path class="cls-1" d="M63.36,53.08a1.39,1.39,0,0,0,.42-1.16,1.32,1.32,0,0,0-.29-.94,1.27,1.27,0,0,0-1-.31c-.46,0-.91,0-1.35,0v2.68h1a2,2,0,0,0,1.18-.31Zm0,0"/><path class="cls-1" d="M63.11,57.78a1.25,1.25,0,0,0,.58-.27A1.11,1.11,0,0,0,64,57a2.52,2.52,0,0,0,.11-.84,2.2,2.2,0,0,0-.13-.85,1.19,1.19,0,0,0-.39-.53A1.58,1.58,0,0,0,63,54.5a4.23,4.23,0,0,0-.85-.08h-1v3.39c.37,0,.75,0,1.12,0a4.89,4.89,0,0,0,.84-.07Zm0,0"/><path class="cls-1" d="M29.94,68.74a18.53,18.53,0,0,1-11.5-33.08,24.4,24.4,0,0,1-.58-4.48,22.51,22.51,0,0,0,22.6,38.91,24,24,0,0,1-3.27-2.84,18.5,18.5,0,0,1-7.25,1.49Zm0,0"/><path class="cls-1" d="M58.72,32.08a18.35,18.35,0,0,0-3.93-.44,18.56,18.56,0,0,0-18,14.24,16.2,16.2,0,0,1-3.65-1.83A22.58,22.58,0,0,1,54.79,27.66a22.32,22.32,0,0,1,3.85.34,16.45,16.45,0,0,0-32.56,0,22.23,22.23,0,0,1,3.85-.34,22.45,22.45,0,0,1,10.58,2.65,24.76,24.76,0,0,0-3.3,2.83,18.41,18.41,0,0,0-7.28-1.51,18,18,0,0,0-3.92.45,16.17,16.17,0,0,0,.32,2,16.42,16.42,0,0,0-2,.57,18.53,18.53,0,0,0,36.06,0,15.23,15.23,0,0,0-2-.57,18,18,0,0,0,.33-2ZM39.57,26.56V17.27c.34,0,.71,0,1.11,0l1.44,0a8.21,8.21,0,0,1,1.52.12,2.29,2.29,0,0,1,1,.42,1.7,1.7,0,0,1,.56.77,3.65,3.65,0,0,1,.18,1.24,2.61,2.61,0,0,1-.4,1.56,2.25,2.25,0,0,1-1,.79l1.93,4.44H44.21l-1.73-4.12h-.64a6.06,6.06,0,0,1-.7-.05v4.18ZM48,45.88a18.49,18.49,0,0,0-4.21-8A16.56,16.56,0,0,1,47,35.56a22.67,22.67,0,0,1,4.59,8.49A16.2,16.2,0,0,1,48,45.88Zm0,0"/><path class="cls-1" d="M42.89,21.35a1.23,1.23,0,0,0,.51-.26,1.15,1.15,0,0,0,.32-.47,2.44,2.44,0,0,0,.1-.77,1.46,1.46,0,0,0-.41-1.21,2,2,0,0,0-1.22-.31h-.58l-.48,0v3c.32,0,.67,0,1,0a3.82,3.82,0,0,0,.72-.07Zm0,0"/><path class="cls-1" d="M36.67,54.15a18.49,18.49,0,0,0,4.1,8.17,16.3,16.3,0,0,0,1.59-1.63A15.2,15.2,0,0,0,44,62.31a18.42,18.42,0,0,0,4.1-8.15,23.86,23.86,0,0,0,4.27-1.45,22.45,22.45,0,0,1-5.13,11.91A16.44,16.44,0,0,0,64,36.41a22.5,22.5,0,0,1-43.33,0,16.45,16.45,0,0,0,9,30.21,16.25,16.25,0,0,0,7.81-2,22.42,22.42,0,0,1-5.13-11.91,23.41,23.41,0,0,0,4.28,1.44Zm22.92-4.53,1.45,0h1.52a3.13,3.13,0,0,1,2.14.58,2.1,2.1,0,0,1,.63,1.62A2.31,2.31,0,0,1,65,53.13a1.89,1.89,0,0,1-1,.68,2.34,2.34,0,0,1,1.32.78,2.56,2.56,0,0,1,.44,1.6,3.41,3.41,0,0,1-.27,1.45,2,2,0,0,1-.78.84,3.2,3.2,0,0,1-1.2.38,12.6,12.6,0,0,1-1.58.09c-.73,0-1.49,0-2.29-.08Zm-33.37,8.2a3.15,3.15,0,0,1-1.35.9A5.76,5.76,0,0,1,23,59,3.64,3.64,0,0,1,20,57.86a5.27,5.27,0,0,1-1-3.56,7.87,7.87,0,0,1,.28-2.21,3.85,3.85,0,0,1,.8-1.49,3.11,3.11,0,0,1,1.24-.84A4.88,4.88,0,0,1,23,49.5a5.55,5.55,0,0,1,.89.08,3.54,3.54,0,0,1,.87.28,3.46,3.46,0,0,1,.77.49,2.37,2.37,0,0,1,.56.73.83.83,0,0,1,.11.42.53.53,0,0,1-.19.43.66.66,0,0,1-.44.17.65.65,0,0,1-.29-.07.47.47,0,0,1-.23-.25,2.12,2.12,0,0,0-.86-.87A2.54,2.54,0,0,0,23,50.63a1.89,1.89,0,0,0-1.69.88,5.25,5.25,0,0,0-.57,2.78,5,5,0,0,0,.58,2.7,2,2,0,0,0,1.82.9,2.57,2.57,0,0,0,.93-.14,1.89,1.89,0,0,0,.66-.36V55.13H22.94L23,54h3.2Zm0,0"/></svg>